REM MD5 9cb01197539f94b945b7de9dc70c20df
FILE "Live Wire! (Europe) (Demo).bin" BINARY
  TRACK 01 MODE2/2352
    INDEX 01 00:00:00
  TRACK 02 AUDIO
    INDEX 00 01:25:73
    INDEX 01 01:27:73
  TRACK 03 AUDIO
    INDEX 00 04:03:15
    INDEX 01 04:05:15
  TRACK 04 AUDIO
    INDEX 00 06:39:57
    INDEX 01 06:41:57
  TRACK 05 AUDIO
    INDEX 00 09:14:42
    INDEX 01 09:16:42
REM LEADOUT 14:20:32
